<?xml version="1.0" standalone="no"?>
<!DOCTYPE svg PUBLIC "-//W3C//DTD SVG 20010904//EN"
 "http://www.w3.org/TR/2001/REC-SVG-20010904/DTD/svg10.dtd">
<svg version="1.0" xmlns="http://www.w3.org/2000/svg"
 width="250.000000pt" height="250.000000pt" viewBox="0 0 250.000000 250.000000"
 preserveAspectRatio="xMidYMid meet">
<metadata>
Created by potrace 1.14, written by Peter Selinger 2001-2017
</metadata>
<g transform="translate(0.000000,250.000000) scale(0.100000,-0.100000)"
fill="#000000" stroke="none">
<path d="M1744 1385 c-11 -17 -14 -36 -10 -56 6 -31 -16 -89 -34 -89 -17 0
-51 79 -44 104 6 27 -17 56 -46 56 -27 0 -54 -44 -42 -66 13 -23 -13 -98 -44
-129 -29 -29 -30 -37 -3 -61 28 -25 52 -8 60 42 3 21 12 54 20 73 l14 34 28
-40 c15 -21 27 -46 27 -55 0 -21 26 -42 43 -35 8 3 17 18 20 34 3 15 17 41 30
58 l24 29 22 -42 c11 -22 21 -55 21 -72 0 -60 72 -94 104 -48 25 35 20 85 -9
111 -67 58 -88 85 -90 117 -5 59 -61 80 -91 35z"/>
<path d="M880 1338 c0 -5 10 -28 22 -51 12 -23 25 -64 28 -92 4 -45 7 -50 30
-50 23 0 25 5 30 50 3 28 15 69 28 92 12 23 22 45 22 48 0 3 -13 5 -29 5 -21
0 -32 -6 -36 -20 -8 -25 -22 -26 -30 -1 -6 19 -65 36 -65 19z"/>
<path d="M1072 1343 c-20 -8 -42 -59 -42 -98 0 -90 75 -138 128 -82 26 27 28
52 6 61 -24 9 -34 7 -34 -8 0 -8 -7 -17 -15 -20 -20 -7 -37 36 -29 70 8 31 34
31 58 -1 11 -15 29 -25 44 -25 20 0 22 -3 13 -14 -7 -8 -11 -32 -9 -53 2 -31
7 -39 26 -41 20 -3 22 0 22 47 0 47 2 51 24 51 23 0 25 -5 28 -47 3 -40 6 -48
23 -48 17 0 21 9 26 50 l5 50 5 -50 4 -50 63 -3 62 -3 0 36 c0 34 -1 35 -40
35 -27 0 -40 4 -40 13 0 8 18 19 40 26 22 6 40 17 40 23 0 7 -14 9 -40 5 -30
-4 -40 -2 -40 9 0 10 12 14 40 14 38 0 40 2 40 30 l0 30 -64 0 -65 0 -4 -47
-3 -48 -2 48 c-2 43 -4 47 -27 47 -23 0 -25 -4 -25 -45 0 -41 -2 -45 -25 -45
-23 0 -25 4 -25 46 0 41 -2 45 -22 42 -19 -2 -24 -10 -26 -40 -2 -28 -8 -38
-20 -38 -13 0 -14 2 -3 9 10 7 11 13 2 29 -19 35 -61 50 -99 35z"/>
<path d="M581 1272 c-33 -109 -36 -132 -18 -132 26 0 47 11 47 25 0 16 35 9
51 -11 16 -20 49 -18 49 3 0 9 -11 54 -25 100 -25 79 -27 83 -55 83 -27 0 -30
-4 -49 -68z m59 -32 c0 -5 -5 -10 -11 -10 -5 0 -7 5 -4 10 3 6 8 10 11 10 2 0
4 -4 4 -10z"/>
<path d="M720 1245 c0 -76 3 -97 15 -101 27 -11 47 16 41 55 l-6 36 22 -42
c21 -42 48 -60 68 -48 6 3 10 48 10 101 0 94 0 94 -25 94 -23 0 -25 -4 -26
-42 l0 -43 -22 43 c-17 34 -26 42 -49 42 l-28 0 0 -95z"/>
</g>
</svg>
